<!DOCTYPE svg PUBLIC "-//W3C//DTD SVG 1.1//EN" "http://www.w3.org/Graphics/SVG/1.1/DTD/svg11.dtd">
<!-- Uploaded to: SVG Repo, www.svgrepo.com, Transformed by: SVG Repo Mixer Tools -->
<svg width="800px" height="800px" viewBox="-2.4 -2.4 28.80 28.80" xmlns="http://www.w3.org/2000/svg" fill="#ffffff">
<g id="SVGRepo_bgCarrier" stroke-width="0">
<path transform="translate(-2.4, -2.4), scale(1.7999999999999998)" fill="#74a7fe" d="M9.166.33a2.25 2.25 0 00-2.332 0l-5.25 3.182A2.25 2.25 0 00.5 5.436v5.128a2.25 2.25 0 001.084 1.924l5.25 3.182a2.25 2.25 0 002.332 0l5.25-3.182a2.25 2.25 0 001.084-1.924V5.436a2.25 2.25 0 00-1.084-1.924L9.166.33z" strokewidth="0"/>
</g>
<g id="SVGRepo_tracerCarrier" stroke-linecap="round" stroke-linejoin="round"/>
<g id="SVGRepo_iconCarrier"> <title>language_xml</title> <rect width="24" height="24" fill="none"/> <path d="M12.89,3l2,.4L11.11,21l-2-.4L12.89,3m6.7,9L16,8.41V5.58L22.42,12,16,18.41V15.58L19.59,12m-18,0L8,5.58V8.41L4.41,12,8,15.58v2.83Z"/> </g>
</svg>